<?xml version="1.0" encoding="UTF-8" standalone="no"?>
<!-- Generator: Adobe Illustrator 26.0.1, SVG Export Plug-In . SVG Version: 6.00 Build 0)  -->

<svg
   version="1.1"
   id="Layer_1"
   x="0px"
   y="0px"
   viewBox="0 0 1500 500.00001"
   xml:space="preserve"
   sodipodi:docname="mark3.svg"
   width="1500"
   height="500"
   inkscape:version="1.2.2 (732a01da63, 2022-12-09)"
   xmlns:inkscape="http://www.inkscape.org/namespaces/inkscape"
   xmlns:sodipodi="http://sodipodi.sourceforge.net/DTD/sodipodi-0.dtd"
   xmlns="http://www.w3.org/2000/svg"
   xmlns:svg="http://www.w3.org/2000/svg"><defs
   id="defs8736"><inkscape:path-effect
     effect="powermask"
     id="path-effect10182"
     is_visible="true"
     lpeversion="1"
     uri="#mask-powermask-path-effect10182"
     invert="false"
     hide_mask="false"
     background="true"
     background_color="#ffffffff" /><mask
     maskUnits="userSpaceOnUse"
     id="mask-powermask-path-effect10182"><path
       id="mask-powermask-path-effect10182_box"
       style="fill:#ffffff;fill-opacity:1"
       d="M -55.160168,-96.576767 H 1801.029 V 666.85146 H -55.160168 Z" /><g
       id="g10180"
       transform="matrix(0.39072675,0,0,0.39072675,3.3750001e-6,180.05991)"
       style="fill:#000000;fill-opacity:1;stroke-width:2.55934">
	<g
   id="g10178"
   style="fill:#000000;fill-opacity:1;stroke-width:2.55934">
		<g
   id="g10134"
   style="fill:#000000;fill-opacity:1;stroke-width:2.55934">
			<g
   id="g10064"
   style="fill:#000000;fill-opacity:1;stroke-width:2.55934">
				<path
   class="st2"
   d="m 966,13.6 h -58.8 c 3.4,-4.4 6.5,-9 9.5,-13.6 h -25.3 c -16.5,21.2 -39.9,40.2 -68.5,53.2 l 16,16.6 C 859,59.5 876.6,46.5 891.1,31.9 h 57.6 C 939.2,45 927.2,57.2 912.8,67.7 l -28.1,-22.3 -11.4,14.4 23.4,18.5 c -20.3,11.8 -44,20.5 -70.4,24.5 l 14.5,20.1 C 911,108.3 962.4,62.4 981.9,13.6 c 0,0 -9.5,0 -15.8,0 z"
   id="path10062"
   style="fill:#000000;fill-opacity:1;stroke-width:2.55934" />
			</g>
			<g
   id="g10068"
   style="fill:#000000;fill-opacity:1;stroke-width:2.55934">
				<polygon
   class="st2"
   points="290.9,26.5 258,3.2 235,23.7 267.8,47 "
   id="polygon10066"
   style="fill:#000000;fill-opacity:1;stroke-width:2.55934"
   d="M 290.9,26.5 258,3.2 235,23.7 267.8,47 Z" />
			</g>
			<g
   id="g10072"
   style="fill:#000000;fill-opacity:1;stroke-width:2.55934">
				<path
   class="st2"
   d="m 211.2,90.5 v 18.3 C 279.4,106.4 334.3,73.5 362.4,29 L 346.9,18.1 C 322.4,57.5 272.8,88.3 211.2,90.5 Z"
   id="path10070"
   style="fill:#000000;fill-opacity:1;stroke-width:2.55934" />
			</g>
			<g
   id="g10076"
   style="fill:#000000;fill-opacity:1;stroke-width:2.55934">
				<path
   class="st2"
   d="m 495.6,41.1 -6.9,-16.9 c -23.6,9.7 -50.1,14.3 -77.6,12.4 L 420.8,0 h -19.2 l -24.5,91.3 c -2.4,8.9 4.3,17.5 13.5,17.5 h 94 l 4.9,-18.3 H 396.4 L 406,54.7 c 31.8,2.7 62.4,-2.3 89.6,-13.6 z"
   id="path10074"
   style="fill:#000000;fill-opacity:1;stroke-width:2.55934" />
			</g>
			<g
   id="g10080"
   style="fill:#000000;fill-opacity:1;stroke-width:2.55934">
				<path
   class="st2"
   d="M 528.9,10 C 526.3,3.5 516.5,1.2 507,5 c -9.4,3.8 -14.8,12.2 -12.2,18.8 2.6,6.5 12.4,8.8 21.9,5 9.3,-3.9 14.9,-12.3 12.2,-18.8 z m -14.7,12.9 c -2.2,0.9 -4.6,1.4 -6.7,1.4 -3.3,0 -6,-1.2 -6.7,-2.9 -0.7,-1.7 0.5,-3.7 1,-4.5 1.6,-2.4 4.4,-4.6 7.7,-5.9 2.2,-0.9 4.6,-1.4 6.7,-1.4 3.3,0 6,1.1 6.7,2.9 1.2,2.6 -2.3,7.7 -8.7,10.4 z"
   id="path10078"
   style="fill:#000000;fill-opacity:1;stroke-width:2.55934" />
			</g>
			<g
   id="g10084"
   style="fill:#000000;fill-opacity:1;stroke-width:2.55934">
				<polygon
   class="st2"
   points="180.3,13.7 87.4,13.7 82.5,31.9 175.5,31.9 161.5,84 66.5,84 61.6,102.3 156.6,102.3 154.4,110.2 173.6,110.2 199.4,13.7 186.4,13.7 "
   id="polygon10082"
   style="fill:#000000;fill-opacity:1;stroke-width:2.55934"
   d="M 180.3,13.7 H 87.4 l -4.9,18.2 h 93 l -14,52.1 h -95 l -4.9,18.3 h 95 l -2.2,7.9 h 19.2 l 25.8,-96.5 h -13 z" />
			</g>
			<g
   id="g10088"
   style="fill:#000000;fill-opacity:1;stroke-width:2.55934">
				<polygon
   class="st2"
   points="669.8,64.5 811.1,64.5 816.1,46.2 674.8,46.2 "
   id="polygon10086"
   style="fill:#000000;fill-opacity:1;stroke-width:2.55934"
   d="m 669.8,64.5 h 141.3 l 5,-18.3 H 674.8 Z" />
			</g>
			<g
   id="g10092"
   style="fill:#000000;fill-opacity:1;stroke-width:2.55934">
				<path
   class="st2"
   d="m 1171.8,92.1 23.8,-88.3 h -19.2 L 1145.7,118 v 0 c 58.5,-3.9 107.3,-30.1 137.9,-64.4 l -15.1,-13.8 c -22.6,24.4 -56.3,44.2 -96.7,52.3 z"
   id="path10090"
   style="fill:#000000;fill-opacity:1;stroke-width:2.55934" />
			</g>
			<g
   id="g10096"
   style="fill:#000000;fill-opacity:1;stroke-width:2.55934">
				<path
   class="st2"
   d="m 987.6,59.3 h 65.6 c -13.9,24.5 -38.8,40.6 -63.4,40.8 l 12.8,17.6 c 30.4,-5.2 58.2,-27.6 71.8,-58.5 h 49.9 L 1129.2,41 H 992.5 Z"
   id="path10094"
   style="fill:#000000;fill-opacity:1;stroke-width:2.55934" />
			</g>
			<g
   id="g10100"
   style="fill:#000000;fill-opacity:1;stroke-width:2.55934">
				<polygon
   class="st2"
   points="1122.1,8 1020.8,8 1016,26.3 1117.2,26.3 "
   id="polygon10098"
   style="fill:#000000;fill-opacity:1;stroke-width:2.55934"
   d="m 1122.1,8 h -101.3 l -4.8,18.3 h 101.2 z" />
			</g>
			<g
   id="g10104"
   style="fill:#000000;fill-opacity:1;stroke-width:2.55934">
				<polygon
   class="st2"
   points="1583.2,8 1565.6,8 1560.9,25.4 1578.5,25.4 "
   id="polygon10102"
   style="fill:#000000;fill-opacity:1;stroke-width:2.55934"
   d="m 1583.2,8 h -17.6 l -4.7,17.4 h 17.6 z" />
			</g>
			<g
   id="g10108"
   style="fill:#000000;fill-opacity:1;stroke-width:2.55934">
				<polygon
   class="st2"
   points="1590,8 1585.4,25.4 1603.1,25.4 1607.8,8 "
   id="polygon10106"
   style="fill:#000000;fill-opacity:1;stroke-width:2.55934"
   d="m 1590,8 -4.6,17.4 h 17.7 L 1607.8,8 Z" />
			</g>
			<g
   id="g10112"
   style="fill:#000000;fill-opacity:1;stroke-width:2.55934">
				
					<rect
   x="1435.3"
   y="7.5"
   transform="matrix(0.9665,-0.2566,0.2566,0.9665,44.1964,371.2147)"
   class="st2"
   width="18.5"
   height="17.4"
   id="rect10110"
   style="fill:#000000;fill-opacity:1;stroke-width:2.55934"
   d="m 1435.3,7.5 h 18.5 v 17.4 h -18.5 z" />
			</g>
			<g
   id="g10116"
   style="fill:#000000;fill-opacity:1;stroke-width:2.55934">
				<path
   class="st2"
   d="m 1428.9,11.5 -17.9,4.7 3.1,11.7 c -21.9,7.7 -51.4,14.3 -76.3,14.4 L 1347,8 h -19.3 l -22.4,83.3 c -2.4,8.9 4.3,17.5 13.5,17.5 h 93.2 l 5.5,-18.3 h -92.8 l 8,-29.7 c 32,0.9 72.2,-9 98.2,-19.6 l -4.5,-11 6.9,-1.8 z"
   id="path10114"
   style="fill:#000000;fill-opacity:1;stroke-width:2.55934" />
			</g>
			<g
   id="g10120"
   style="fill:#000000;fill-opacity:1;stroke-width:2.55934">
				<polygon
   class="st2"
   points="1610.8,51.3 1605.8,69.7 1746.8,69.7 1751.7,51.3 "
   id="polygon10118"
   style="fill:#000000;fill-opacity:1;stroke-width:2.55934"
   d="m 1610.8,51.3 -5,18.4 h 141 l 4.9,-18.4 z" />
			</g>
			<g
   id="g10124"
   style="fill:#000000;fill-opacity:1;stroke-width:2.55934">
				<path
   class="st2"
   d="m 1866.3,123.1 27,-11 c -4.3,-22.4 -12,-43.7 -22.9,-63.6 l -26.6,10.9 c 5.6,10 10.3,20.3 14.1,31.1 h -66 c 23.2,-22.7 44,-50.2 60.7,-82.5 h -22.9 c -18.1,33.1 -41,60.8 -66.2,82.5 h -9.5 l -5,18.3 h 1.1 v 0 h 21.1 v 0 h 92.1 c 1.2,4.8 2.2,9.5 3,14.3 z"
   id="path10122"
   style="fill:#000000;fill-opacity:1;stroke-width:2.55934" />
			</g>
			<g
   id="g10128"
   style="fill:#000000;fill-opacity:1;stroke-width:2.55934">
				<polygon
   class="st2"
   points="524.4,96.6 598.3,96.6 617.5,96.6 640.1,96.6 645.1,78.1 622.4,78.1 637.3,22.7 629.6,22.7 618.2,22.7 561.3,22.7 556.4,41 613.2,41 603.3,78.1 529.4,78.1 "
   id="polygon10126"
   style="fill:#000000;fill-opacity:1;stroke-width:2.55934"
   d="m 524.4,96.6 h 73.9 19.2 22.6 l 5,-18.5 h -22.7 l 14.9,-55.4 h -7.7 -11.4 -56.9 L 556.4,41 h 56.8 l -9.9,37.1 h -73.9 z" />
			</g>
			<g
   id="g10132"
   style="fill:#000000;fill-opacity:1;stroke-width:2.55934">
				<path
   class="st2"
   d="m 1542.2,31.7 h -29.8 c 6.7,-7.7 13.1,-15.6 18.9,-23.9 h -23.1 c -16.4,20.9 -36.8,39.8 -58.9,54.9 l 10.8,14.9 c 12.1,-8.3 23.6,-17.5 34.2,-27.7 h 42.3 c -13.5,32.7 -46.2,54 -76.5,49.4 l 13.9,19.2 c 36.3,-2.9 70.1,-30.4 82.8,-68.7 h 34.5 l 4.9,-18.2 V 31.5 H 1561 Z"
   id="path10130"
   style="fill:#000000;fill-opacity:1;stroke-width:2.55934" />
			</g>
		</g>
		<g
   id="g10176"
   style="fill:#000000;fill-opacity:1;stroke-width:2.55934">
			<g
   id="g10138"
   style="fill:#000000;fill-opacity:1;stroke-width:2.55934">
				<path
   class="st2"
   d="m 1099.5,235.6 -9.6,35.7 h 82.4 l -13.6,50.8 H 898.1 l 36.8,-137.5 h 323.2 l 9.6,-35.7 h -359 c -14.7,0 -29.9,11.9 -33.8,26.7 l -2.4,9.1 -39.3,146.6 c -3.9,14.7 4.7,26.7 19.5,26.7 h 359 l 32.8,-122.3 h -145 z"
   id="path10136"
   style="fill:#000000;fill-opacity:1;stroke-width:2.55934" />
			</g>
			<g
   id="g10142"
   style="fill:#000000;fill-opacity:1;stroke-width:2.55934">
				<path
   class="st2"
   d="m 509.1,271.3 h 257.7 l 9.6,-35.7 H 518.7 l 13.6,-50.8 H 855.5 L 865,149 H 506.1 c -14.7,0 -29.9,11.9 -33.8,26.7 l -41.7,155.5 c -3.9,14.7 4.7,26.7 19.5,26.7 h 359 l 9.6,-35.7 H 495.5 Z"
   id="path10140"
   style="fill:#000000;fill-opacity:1;stroke-width:2.55934" />
			</g>
			<g
   id="g10146"
   style="fill:#000000;fill-opacity:1;stroke-width:2.55934">
				<path
   class="st2"
   d="M 391.8,235.6 H 95.3 l 13.6,-50.8 h 323.2 l 9.6,-35.7 H 82.8 C 68.1,149.1 52.9,161 49,175.8 l -18.5,69 c -3.9,14.7 4.7,26.7 19.5,26.7 h 296.5 l -13.7,50.8 H 9.6 L 0,357.9 h 359 c 14.7,0 29.9,-11.9 33.8,-26.7 l 18.4,-69.1 c 4.1,-14.6 -4.7,-26.5 -19.4,-26.5 z"
   id="path10144"
   style="fill:#000000;fill-opacity:1;stroke-width:2.55934" />
			</g>
			<g
   id="g10150"
   style="fill:#000000;fill-opacity:1;stroke-width:2.55934">
				<polygon
   class="st2"
   points="1440,194.4 1499.5,278.4 1396.5,278.4 1366.2,314.1 1525,314.1 1556,357.9 1634.5,357.9 1486.2,148.9 1409,148.9 1227.6,357.9 1298.1,357.9 "
   id="polygon10148"
   style="fill:#000000;fill-opacity:1;stroke-width:2.55934"
   d="m 1440,194.4 59.5,84 h -103 l -30.3,35.7 H 1525 l 31,43.8 h 78.5 l -148.3,-209 H 1409 l -181.4,209 h 70.5 z" />
			</g>
			<g
   id="g10154"
   style="fill:#000000;fill-opacity:1;stroke-width:2.55934">
				<polygon
   class="st2"
   points="2371.8,194.4 2431.4,278.4 2328.4,278.4 2298,314.1 2456.8,314.1 2487.9,357.9 2566.3,357.9 2418.1,148.9 2340.9,148.9 2159.5,357.9 2229.8,357.9 "
   id="polygon10152"
   style="fill:#000000;fill-opacity:1;stroke-width:2.55934"
   d="m 2371.8,194.4 59.6,84 h -103 l -30.4,35.7 h 158.8 l 31.1,43.8 h 78.4 l -148.2,-209 h -77.2 l -181.4,209 h 70.3 z" />
			</g>
			<g
   id="g10158"
   style="fill:#000000;fill-opacity:1;stroke-width:2.55934">
				<polygon
   class="st2"
   points="3038.4,148.9 2982.4,357.9 3044.9,357.9 3100.9,148.9 "
   id="polygon10156"
   style="fill:#000000;fill-opacity:1;stroke-width:2.55934"
   d="m 3038.4,148.9 -56,209 h 62.5 l 56,-209 z" />
			</g>
			<g
   id="g10162"
   style="fill:#000000;fill-opacity:1;stroke-width:2.55934">
				<path
   class="st2"
   d="m 2986.5,241.9 17.8,-66.3 c 3.9,-14.7 -4.7,-26.7 -19.5,-26.7 h -359 l -56.1,209 h 62.5 l 46.4,-173.3 h 260.7 l -12.9,48.1 h -223.6 l 158.8,125 h 98.5 L 2842,268.5 h 110.6 c 14.9,0.1 30,-11.9 33.9,-26.6 z"
   id="path10160"
   style="fill:#000000;fill-opacity:1;stroke-width:2.55934" />
			</g>
			<g
   id="g10166"
   style="fill:#000000;fill-opacity:1;stroke-width:2.55934">
				<polygon
   class="st2"
   points="3412.2,148.9 3310.7,148.9 3075.3,258.4 3246.2,357.9 3347.7,357.9 3176.7,258.4 "
   id="polygon10164"
   style="fill:#000000;fill-opacity:1;stroke-width:2.55934"
   d="m 3412.2,148.9 h -101.5 l -235.4,109.5 170.9,99.5 h 101.5 l -171,-99.5 z" />
			</g>
			<g
   id="g10170"
   style="fill:#000000;fill-opacity:1;stroke-width:2.55934">
				<path
   class="st2"
   d="m 3801.7,49 h -70.4 -39.6 -70.4 -39.6 -70.4 -37.3 l -2.8,10.4 h 23 c 7.9,0 12.4,6.8 10.2,15.3 l -69,257.4 c -2.3,8.5 -10.5,15.3 -18.3,15.3 h -23 l -2.8,10.4 h 37.3 70.4 39.6 70.4 39.6 70.4 37.3 l 2.8,-10.4 h -23 c -7.9,0 -12.4,-6.8 -10.2,-15.3 l 69,-257.4 c 2.3,-8.5 10.5,-15.3 18.3,-15.3 h 23 L 3839,49 Z m -187.3,25.8 -69,257.4 c -2.3,8.5 -10.5,15.3 -18.3,15.3 h -11 c -7.9,0 -12.4,-6.8 -10.2,-15.3 l 69,-257.4 c 2.3,-8.5 10.5,-15.3 18.3,-15.3 h 11 c 7.9,0 12.4,6.8 10.2,15.3 z m 110,-0.1 -69,257.4 c -2.2,8.6 -10.5,15.4 -18.3,15.4 h -11 c -7.9,0 -12.4,-6.8 -10.2,-15.3 l 69,-257.5 c 2.3,-8.5 10.5,-15.3 18.3,-15.3 h 11 c 7.9,0 12.4,6.8 10.2,15.3 z"
   id="path10168"
   style="fill:#000000;fill-opacity:1;stroke-width:2.55934" />
			</g>
			<g
   id="g10174"
   style="fill:#000000;fill-opacity:1;stroke-width:2.55934">
				<polygon
   class="st2"
   points="2084,357.9 2146.5,357.9 2202.5,148.9 2139.9,148.9 1955.5,302.8 1853.4,148.9 1791,148.9 1734.9,357.9 1797.4,357.9 1830.3,235.1 1911.9,357.9 1974.8,357.9 2115.5,240.7 "
   id="polygon10172"
   style="fill:#000000;fill-opacity:1;stroke-width:2.55934"
   d="m 2084,357.9 h 62.5 l 56,-209 h -62.6 L 1955.5,302.8 1853.4,148.9 H 1791 l -56.1,209 h 62.5 l 32.9,-122.8 81.6,122.8 h 62.9 l 140.7,-117.2 z" />
			</g>
		</g>
	</g>
</g></mask><filter
     id="mask-powermask-path-effect10182_inverse"
     inkscape:label="filtermask-powermask-path-effect10182"
     style="color-interpolation-filters:sRGB"
     height="100"
     width="100"
     x="-50"
     y="-50"><feColorMatrix
       id="mask-powermask-path-effect10182_primitive1"
       values="1"
       type="saturate"
       result="fbSourceGraphic" /><feColorMatrix
       id="mask-powermask-path-effect10182_primitive2"
       values="-1 0 0 0 1 0 -1 0 0 1 0 0 -1 0 1 0 0 0 1 0 "
       in="fbSourceGraphic" /></filter></defs><sodipodi:namedview
   id="namedview8734"
   pagecolor="#ffffff"
   bordercolor="#111111"
   borderopacity="1"
   inkscape:showpageshadow="0"
   inkscape:pageopacity="0"
   inkscape:pagecheckerboard="1"
   inkscape:deskcolor="#d1d1d1"
   showgrid="false"
   inkscape:zoom="0.31388382"
   inkscape:cx="1819.1444"
   inkscape:cy="178.40996"
   inkscape:window-width="1920"
   inkscape:window-height="1009"
   inkscape:window-x="-8"
   inkscape:window-y="-8"
   inkscape:window-maximized="1"
   inkscape:current-layer="Layer_1" />
<style
   type="text/css"
   id="style8611">
	.st0{fill:#0898FF;}
	.st1{fill:#F72326;}
	.st2{fill:#FFFFFF;}
</style>

<rect
   style="fill:#ffffff;fill-opacity:1;stroke-width:7.2;stroke-miterlimit:4.5;paint-order:fill markers stroke"
   id="rect9270"
   width="1854.1892"
   height="761.42822"
   x="-54.160168"
   y="-95.576767"
   mask="url(#mask-powermask-path-effect10182)"
   inkscape:path-effect="#path-effect10182"
   d="M -54.160168,-95.576767 H 1800.029 V 665.85146 H -54.160168 Z" /></svg>
