<?xml version="1.0" encoding="UTF-8" standalone="no"?>
<!-- Created with Inkscape (http://www.inkscape.org/) -->

<svg
   width="1500"
   height="500"
   viewBox="0 0 396.87498 132.29167"
   version="1.1"
   id="svg5"
   inkscape:version="1.2.2 (732a01da63, 2022-12-09)"
   xml:space="preserve"
   sodipodi:docname="multivision.svg"
   xmlns:inkscape="http://www.inkscape.org/namespaces/inkscape"
   xmlns:sodipodi="http://sodipodi.sourceforge.net/DTD/sodipodi-0.dtd"
   xmlns="http://www.w3.org/2000/svg"
   xmlns:svg="http://www.w3.org/2000/svg"><sodipodi:namedview
     id="namedview7"
     pagecolor="#000000"
     bordercolor="#111111"
     borderopacity="1"
     inkscape:showpageshadow="0"
     inkscape:pageopacity="0"
     inkscape:pagecheckerboard="1"
     inkscape:deskcolor="#d1d1d1"
     inkscape:document-units="mm"
     showgrid="false"
     inkscape:zoom="0.62760415"
     inkscape:cx="949.64318"
     inkscape:cy="348.94607"
     inkscape:window-width="1920"
     inkscape:window-height="1009"
     inkscape:window-x="-8"
     inkscape:window-y="-8"
     inkscape:window-maximized="1"
     inkscape:current-layer="layer1" /><defs
     id="defs2"><inkscape:path-effect
   effect="powermask"
   id="path-effect1435"
   is_visible="true"
   lpeversion="1"
   uri="#mask-powermask-path-effect1435"
   invert="false"
   hide_mask="false"
   background="true"
   background_color="#ffffffff" /><path
   id="SVGID_37_"
   d="M263.9,1002.2c13.5-0.7,27.7-3.4,41.2-7.4c6.7-2,18.2-6.7,35.8-14.2c14.8-6.1,27-10.8,37.8-13.5 c15.5-4,31.7-6.1,48.6-6.1c16.9,0,33.1,2,48.6,6.1c9.4,2.7,22.3,7.4,37.8,14.2c15.5,6.7,27.7,10.8,35.8,13.5 c14.2,4,28.3,6.1,43.2,5.4c21.6,0,41.8-6.1,60.7-18.2c16.2-10.8,32.4-25.6,49.3-45.9c10.8-12.8,25-32.4,43.2-58.7 c19.6-29.7,37.1-61.4,52-96.5c5.4-12.8,11.5-28.3,16.9-45.9c-10.8-4-22.3-10.1-35.1-18.9c-26.3-17.5-47.9-39.1-64.1-64.1 c-22.9-34.4-34.4-74.2-35.1-119.5c0-37.1,8.8-72.9,27-105.3c12.8-22.9,30.4-43.9,51.3-62.8c9.4-8.8,19.6-16.2,30.4-22.9 c-25.6-37.8-60.1-64.8-102.6-81.7c-24.3-9.4-51.3-15.5-81-17.5c-15.5-1.3-31.7-0.7-47.9,2c-13.5,2-28.3,6.1-43.9,10.8 c-10.1,4-22.9,8.8-39.1,14.8c-16.2,6.7-27.7,10.8-33.7,12.8c-10.8,3.4-20.2,5.4-27,5.4c-8.8,0-20.2-2-33.7-6.7 c-4-1.3-16.9-6.7-39.8-15.5c-17.5-6.7-32.4-12.1-44.5-15.5c-16.9-4-32.4-6.1-47.2-6.1c-42.5,0.7-81.7,12.1-118.8,35.1 c-37.1,22.3-66.1,52.6-87.7,91.1C14.2,418.4,0,475.8,0,541.3C0,600,10.1,660,31,722.8c18.9,57.4,43.9,108,74.2,151.8 c17.5,26.3,32.4,46.6,44.5,60.7c17.5,21.6,35.1,37.1,52,47.9C222,996.1,242.3,1002.2,263.9,1002.2z" /><path
   id="SVGID_39_"
   d="M263.9,1002.2c13.5-0.7,27.7-3.4,41.2-7.4c6.7-2,18.2-6.7,35.8-14.2c14.8-6.1,27-10.8,37.8-13.5 c15.5-4,31.7-6.1,48.6-6.1c16.9,0,33.1,2,48.6,6.1c9.4,2.7,22.3,7.4,37.8,14.2c15.5,6.7,27.7,10.8,35.8,13.5 c14.2,4,28.3,6.1,43.2,5.4c21.6,0,41.8-6.1,60.7-18.2c16.2-10.8,32.4-25.6,49.3-45.9c10.8-12.8,25-32.4,43.2-58.7 c19.6-29.7,37.1-61.4,52-96.5c5.4-12.8,11.5-28.3,16.9-45.9c-10.8-4-22.3-10.1-35.1-18.9c-26.3-17.5-47.9-39.1-64.1-64.1 c-22.9-34.4-34.4-74.2-35.1-119.5c0-37.1,8.8-72.9,27-105.3c12.8-22.9,30.4-43.9,51.3-62.8c9.4-8.8,19.6-16.2,30.4-22.9 c-25.6-37.8-60.1-64.8-102.6-81.7c-24.3-9.4-51.3-15.5-81-17.5c-15.5-1.3-31.7-0.7-47.9,2c-13.5,2-28.3,6.1-43.9,10.8 c-10.1,4-22.9,8.8-39.1,14.8c-16.2,6.7-27.7,10.8-33.7,12.8c-10.8,3.4-20.2,5.4-27,5.4c-8.8,0-20.2-2-33.7-6.7 c-4-1.3-16.9-6.7-39.8-15.5c-17.5-6.7-32.4-12.1-44.5-15.5c-16.9-4-32.4-6.1-47.2-6.1c-42.5,0.7-81.7,12.1-118.8,35.1 c-37.1,22.3-66.1,52.6-87.7,91.1C14.2,418.4,0,475.8,0,541.3C0,600,10.1,660,31,722.8c18.9,57.4,43.9,108,74.2,151.8 c17.5,26.3,32.4,46.6,44.5,60.7c17.5,21.6,35.1,37.1,52,47.9C222,996.1,242.3,1002.2,263.9,1002.2z" /><path
   id="SVGID_41_"
   d="M263.9,1002.2c13.5-0.7,27.7-3.4,41.2-7.4c6.7-2,18.2-6.7,35.8-14.2c14.8-6.1,27-10.8,37.8-13.5 c15.5-4,31.7-6.1,48.6-6.1c16.9,0,33.1,2,48.6,6.1c9.4,2.7,22.3,7.4,37.8,14.2c15.5,6.7,27.7,10.8,35.8,13.5 c14.2,4,28.3,6.1,43.2,5.4c21.6,0,41.8-6.1,60.7-18.2c16.2-10.8,32.4-25.6,49.3-45.9c10.8-12.8,25-32.4,43.2-58.7 c19.6-29.7,37.1-61.4,52-96.5c5.4-12.8,11.5-28.3,16.9-45.9c-10.8-4-22.3-10.1-35.1-18.9c-26.3-17.5-47.9-39.1-64.1-64.1 c-22.9-34.4-34.4-74.2-35.1-119.5c0-37.1,8.8-72.9,27-105.3c12.8-22.9,30.4-43.9,51.3-62.8c9.4-8.8,19.6-16.2,30.4-22.9 c-25.6-37.8-60.1-64.8-102.6-81.7c-24.3-9.4-51.3-15.5-81-17.5c-15.5-1.3-31.7-0.7-47.9,2c-13.5,2-28.3,6.1-43.9,10.8 c-10.1,4-22.9,8.8-39.1,14.8c-16.2,6.7-27.7,10.8-33.7,12.8c-10.8,3.4-20.2,5.4-27,5.4c-8.8,0-20.2-2-33.7-6.7 c-4-1.3-16.9-6.7-39.8-15.5c-17.5-6.7-32.4-12.1-44.5-15.5c-16.9-4-32.4-6.1-47.2-6.1c-42.5,0.7-81.7,12.1-118.8,35.1 c-37.1,22.3-66.1,52.6-87.7,91.1C14.2,418.4,0,475.8,0,541.3C0,600,10.1,660,31,722.8c18.9,57.4,43.9,108,74.2,151.8 c17.5,26.3,32.4,46.6,44.5,60.7c17.5,21.6,35.1,37.1,52,47.9C222,996.1,242.3,1002.2,263.9,1002.2z" /><path
   id="SVGID_43_"
   d="M263.9,1002.2c13.5-0.7,27.7-3.4,41.2-7.4c6.7-2,18.2-6.7,35.8-14.2c14.8-6.1,27-10.8,37.8-13.5 c15.5-4,31.7-6.1,48.6-6.1c16.9,0,33.1,2,48.6,6.1c9.4,2.7,22.3,7.4,37.8,14.2c15.5,6.7,27.7,10.8,35.8,13.5 c14.2,4,28.3,6.1,43.2,5.4c21.6,0,41.8-6.1,60.7-18.2c16.2-10.8,32.4-25.6,49.3-45.9c10.8-12.8,25-32.4,43.2-58.7 c19.6-29.7,37.1-61.4,52-96.5c5.4-12.8,11.5-28.3,16.9-45.9c-10.8-4-22.3-10.1-35.1-18.9c-26.3-17.5-47.9-39.1-64.1-64.1 c-22.9-34.4-34.4-74.2-35.1-119.5c0-37.1,8.8-72.9,27-105.3c12.8-22.9,30.4-43.9,51.3-62.8c9.4-8.8,19.6-16.2,30.4-22.9 c-25.6-37.8-60.1-64.8-102.6-81.7c-24.3-9.4-51.3-15.5-81-17.5c-15.5-1.3-31.7-0.7-47.9,2c-13.5,2-28.3,6.1-43.9,10.8 c-10.1,4-22.9,8.8-39.1,14.8c-16.2,6.7-27.7,10.8-33.7,12.8c-10.8,3.4-20.2,5.4-27,5.4c-8.8,0-20.2-2-33.7-6.7 c-4-1.3-16.9-6.7-39.8-15.5c-17.5-6.7-32.4-12.1-44.5-15.5c-16.9-4-32.4-6.1-47.2-6.1c-42.5,0.7-81.7,12.1-118.8,35.1 c-37.1,22.3-66.1,52.6-87.7,91.1C14.2,418.4,0,475.8,0,541.3C0,600,10.1,660,31,722.8c18.9,57.4,43.9,108,74.2,151.8 c17.5,26.3,32.4,46.6,44.5,60.7c17.5,21.6,35.1,37.1,52,47.9C222,996.1,242.3,1002.2,263.9,1002.2z" /><path
   id="SVGID_45_"
   d="M263.9,1002.2c13.5-0.7,27.7-3.4,41.2-7.4c6.7-2,18.2-6.7,35.8-14.2c14.8-6.1,27-10.8,37.8-13.5 c15.5-4,31.7-6.1,48.6-6.1c16.9,0,33.1,2,48.6,6.1c9.4,2.7,22.3,7.4,37.8,14.2c15.5,6.7,27.7,10.8,35.8,13.5 c14.2,4,28.3,6.1,43.2,5.4c21.6,0,41.8-6.1,60.7-18.2c16.2-10.8,32.4-25.6,49.3-45.9c10.8-12.8,25-32.4,43.2-58.7 c19.6-29.7,37.1-61.4,52-96.5c5.4-12.8,11.5-28.3,16.9-45.9c-10.8-4-22.3-10.1-35.1-18.9c-26.3-17.5-47.9-39.1-64.1-64.1 c-22.9-34.4-34.4-74.2-35.1-119.5c0-37.1,8.8-72.9,27-105.3c12.8-22.9,30.4-43.9,51.3-62.8c9.4-8.8,19.6-16.2,30.4-22.9 c-25.6-37.8-60.1-64.8-102.6-81.7c-24.3-9.4-51.3-15.5-81-17.5c-15.5-1.3-31.7-0.7-47.9,2c-13.5,2-28.3,6.1-43.9,10.8 c-10.1,4-22.9,8.8-39.1,14.8c-16.2,6.7-27.7,10.8-33.7,12.8c-10.8,3.4-20.2,5.4-27,5.4c-8.8,0-20.2-2-33.7-6.7 c-4-1.3-16.9-6.7-39.8-15.5c-17.5-6.7-32.4-12.1-44.5-15.5c-16.9-4-32.4-6.1-47.2-6.1c-42.5,0.7-81.7,12.1-118.8,35.1 c-37.1,22.3-66.1,52.6-87.7,91.1C14.2,418.4,0,475.8,0,541.3C0,600,10.1,660,31,722.8c18.9,57.4,43.9,108,74.2,151.8 c17.5,26.3,32.4,46.6,44.5,60.7c17.5,21.6,35.1,37.1,52,47.9C222,996.1,242.3,1002.2,263.9,1002.2z" /><path
   id="SVGID_47_"
   d="M263.9,1002.2c13.5-0.7,27.7-3.4,41.2-7.4c6.7-2,18.2-6.7,35.8-14.2c14.8-6.1,27-10.8,37.8-13.5 c15.5-4,31.7-6.1,48.6-6.1c16.9,0,33.1,2,48.6,6.1c9.4,2.7,22.3,7.4,37.8,14.2c15.5,6.7,27.7,10.8,35.8,13.5 c14.2,4,28.3,6.1,43.2,5.4c21.6,0,41.8-6.1,60.7-18.2c16.2-10.8,32.4-25.6,49.3-45.9c10.8-12.8,25-32.4,43.2-58.7 c19.6-29.7,37.1-61.4,52-96.5c5.4-12.8,11.5-28.3,16.9-45.9c-10.8-4-22.3-10.1-35.1-18.9c-26.3-17.5-47.9-39.1-64.1-64.1 c-22.9-34.4-34.4-74.2-35.1-119.5c0-37.1,8.8-72.9,27-105.3c12.8-22.9,30.4-43.9,51.3-62.8c9.4-8.8,19.6-16.2,30.4-22.9 c-25.6-37.8-60.1-64.8-102.6-81.7c-24.3-9.4-51.3-15.5-81-17.5c-15.5-1.3-31.7-0.7-47.9,2c-13.5,2-28.3,6.1-43.9,10.8 c-10.1,4-22.9,8.8-39.1,14.8c-16.2,6.7-27.7,10.8-33.7,12.8c-10.8,3.4-20.2,5.4-27,5.4c-8.8,0-20.2-2-33.7-6.7 c-4-1.3-16.9-6.7-39.8-15.5c-17.5-6.7-32.4-12.1-44.5-15.5c-16.9-4-32.4-6.1-47.2-6.1c-42.5,0.7-81.7,12.1-118.8,35.1 c-37.1,22.3-66.1,52.6-87.7,91.1C14.2,418.4,0,475.8,0,541.3C0,600,10.1,660,31,722.8c18.9,57.4,43.9,108,74.2,151.8 c17.5,26.3,32.4,46.6,44.5,60.7c17.5,21.6,35.1,37.1,52,47.9C222,996.1,242.3,1002.2,263.9,1002.2z" />
	
		<linearGradient
   id="SVGID_15_"
   gradientUnits="userSpaceOnUse"
   x1="-82"
   y1="224.5"
   x2="-82"
   y2="151.5"
   gradientTransform="matrix(1,0,0,-1,654,325)">
		<stop
   offset="0"
   style="stop-color:#7ED3F7"
   id="stop160" />
		<stop
   offset="1"
   style="stop-color:#003D7E"
   id="stop162" />
	</linearGradient>
	
	

	
		<linearGradient
   id="SVGID_14_"
   gradientUnits="userSpaceOnUse"
   x1="-24"
   y1="311.5"
   x2="-24"
   y2="238"
   gradientTransform="matrix(1,0,0,-1,654,325)">
		<stop
   offset="0"
   style="stop-color:#7ED3F7"
   id="stop149" />
		<stop
   offset="1"
   style="stop-color:#003D7E"
   id="stop151" />
	</linearGradient>
	
	

	
		<linearGradient
   id="SVGID_13_"
   gradientUnits="userSpaceOnUse"
   x1="-208.3335"
   y1="311.5"
   x2="-208.3335"
   y2="238"
   gradientTransform="matrix(1,0,0,-1,654,325)">
		<stop
   offset="0"
   style="stop-color:#7ED3F7"
   id="stop138" />
		<stop
   offset="1"
   style="stop-color:#003D7E"
   id="stop140" />
	</linearGradient>
	
	

	
		<linearGradient
   id="SVGID_12_"
   gradientUnits="userSpaceOnUse"
   x1="-369.74951"
   y1="311.5"
   x2="-369.74951"
   y2="238"
   gradientTransform="matrix(1,0,0,-1,654,325)">
		<stop
   offset="0"
   style="stop-color:#7ED3F7"
   id="stop127" />
		<stop
   offset="1"
   style="stop-color:#003D7E"
   id="stop129" />
	</linearGradient>
	
	

	
		<linearGradient
   id="SVGID_11_"
   gradientUnits="userSpaceOnUse"
   x1="-403"
   y1="311.5"
   x2="-403"
   y2="238"
   gradientTransform="matrix(1,0,0,-1,654,325)">
		<stop
   offset="0"
   style="stop-color:#7ED3F7"
   id="stop116" />
		<stop
   offset="1"
   style="stop-color:#003D7E"
   id="stop118" />
	</linearGradient>
	
	

	
	

		
			<linearGradient
   id="SVGID_10_"
   gradientUnits="userSpaceOnUse"
   x1="-498.50049"
   y1="311.84671"
   x2="-498.50049"
   y2="236.83659"
   gradientTransform="matrix(1,0,0,-1,654,325)">
			<stop
   offset="0"
   style="stop-color:#7ED3F7"
   id="stop101" />
			<stop
   offset="1"
   style="stop-color:#003D7E"
   id="stop103" />
		</linearGradient>
		
	
		
	
	
		<linearGradient
   id="SVGID_9_"
   gradientUnits="userSpaceOnUse"
   x1="-303.91699"
   y1="311.5"
   x2="-303.91699"
   y2="238"
   gradientTransform="matrix(1,0,0,-1,654,325)">
		<stop
   offset="0"
   style="stop-color:#7ED3F7"
   id="stop90" />
		<stop
   offset="1"
   style="stop-color:#003D7E"
   id="stop92" />
	</linearGradient>
	
	

	
		<linearGradient
   id="SVGID_8_"
   gradientUnits="userSpaceOnUse"
   x1="-274.91699"
   y1="224.5"
   x2="-274.91699"
   y2="151.5"
   gradientTransform="matrix(1,0,0,-1,654,325)">
		<stop
   offset="0"
   style="stop-color:#7ED3F7"
   id="stop79" />
		<stop
   offset="1"
   style="stop-color:#003D7E"
   id="stop81" />
	</linearGradient>
	
	

	
		<linearGradient
   id="SVGID_7_"
   gradientUnits="userSpaceOnUse"
   x1="-593.4165"
   y1="311.5"
   x2="-593.4165"
   y2="238"
   gradientTransform="matrix(1,0,0,-1,654,325)">
		<stop
   offset="0"
   style="stop-color:#7ED3F7"
   id="stop68" />
		<stop
   offset="1"
   style="stop-color:#003D7E"
   id="stop70" />
	</linearGradient>
	
	

	
		<linearGradient
   id="SVGID_6_"
   gradientUnits="userSpaceOnUse"
   x1="-308.75"
   y1="224.5"
   x2="-308.75"
   y2="151.5"
   gradientTransform="matrix(1,0,0,-1,654,325)">
		<stop
   offset="0"
   style="stop-color:#7ED3F7"
   id="stop57" />
		<stop
   offset="1"
   style="stop-color:#003D7E"
   id="stop59" />
	</linearGradient>
	
	

		
		
		
		
		
		
		
		
		
	
		
	
			
			
			
			
			
			
			
			
			
		
				
				
				
				
			<filter
   id="mask-powermask-path-effect1097_inverse"
   inkscape:label="filtermask-powermask-path-effect1097"
   style="color-interpolation-filters:sRGB"
   height="100"
   width="100"
   x="-50"
   y="-50"><feColorMatrix
     id="mask-powermask-path-effect1097_primitive1"
     values="1"
     type="saturate"
     result="fbSourceGraphic" /><feColorMatrix
     id="mask-powermask-path-effect1097_primitive2"
     values="-1 0 0 0 1 0 -1 0 0 1 0 0 -1 0 1 0 0 0 1 0 "
     in="fbSourceGraphic" /></filter><filter
   id="mask-powermask-path-effect1102_inverse"
   inkscape:label="filtermask-powermask-path-effect1102"
   style="color-interpolation-filters:sRGB"
   height="100"
   width="100"
   x="-50"
   y="-50"><feColorMatrix
     id="mask-powermask-path-effect1102_primitive1"
     values="1"
     type="saturate"
     result="fbSourceGraphic" /><feColorMatrix
     id="mask-powermask-path-effect1102_primitive2"
     values="-1 0 0 0 1 0 -1 0 0 1 0 0 -1 0 1 0 0 0 1 0 "
     in="fbSourceGraphic" /></filter><filter
   id="mask-powermask-path-effect1107_inverse"
   inkscape:label="filtermask-powermask-path-effect1107"
   style="color-interpolation-filters:sRGB"
   height="100"
   width="100"
   x="-50"
   y="-50"><feColorMatrix
     id="mask-powermask-path-effect1107_primitive1"
     values="1"
     type="saturate"
     result="fbSourceGraphic" /><feColorMatrix
     id="mask-powermask-path-effect1107_primitive2"
     values="-1 0 0 0 1 0 -1 0 0 1 0 0 -1 0 1 0 0 0 1 0 "
     in="fbSourceGraphic" /></filter><filter
   id="mask-powermask-path-effect1112_inverse"
   inkscape:label="filtermask-powermask-path-effect1112"
   style="color-interpolation-filters:sRGB"
   height="100"
   width="100"
   x="-50"
   y="-50"><feColorMatrix
     id="mask-powermask-path-effect1112_primitive1"
     values="1"
     type="saturate"
     result="fbSourceGraphic" /><feColorMatrix
     id="mask-powermask-path-effect1112_primitive2"
     values="-1 0 0 0 1 0 -1 0 0 1 0 0 -1 0 1 0 0 0 1 0 "
     in="fbSourceGraphic" /></filter><filter
   id="mask-powermask-path-effect1117_inverse"
   inkscape:label="filtermask-powermask-path-effect1117"
   style="color-interpolation-filters:sRGB"
   height="100"
   width="100"
   x="-50"
   y="-50"><feColorMatrix
     id="mask-powermask-path-effect1117_primitive1"
     values="1"
     type="saturate"
     result="fbSourceGraphic" /><feColorMatrix
     id="mask-powermask-path-effect1117_primitive2"
     values="-1 0 0 0 1 0 -1 0 0 1 0 0 -1 0 1 0 0 0 1 0 "
     in="fbSourceGraphic" /></filter><filter
   id="mask-powermask-path-effect1122_inverse"
   inkscape:label="filtermask-powermask-path-effect1122"
   style="color-interpolation-filters:sRGB"
   height="100"
   width="100"
   x="-50"
   y="-50"><feColorMatrix
     id="mask-powermask-path-effect1122_primitive1"
     values="1"
     type="saturate"
     result="fbSourceGraphic" /><feColorMatrix
     id="mask-powermask-path-effect1122_primitive2"
     values="-1 0 0 0 1 0 -1 0 0 1 0 0 -1 0 1 0 0 0 1 0 "
     in="fbSourceGraphic" /></filter><filter
   id="mask-powermask-path-effect1127_inverse"
   inkscape:label="filtermask-powermask-path-effect1127"
   style="color-interpolation-filters:sRGB"
   height="100"
   width="100"
   x="-50"
   y="-50"><feColorMatrix
     id="mask-powermask-path-effect1127_primitive1"
     values="1"
     type="saturate"
     result="fbSourceGraphic" /><feColorMatrix
     id="mask-powermask-path-effect1127_primitive2"
     values="-1 0 0 0 1 0 -1 0 0 1 0 0 -1 0 1 0 0 0 1 0 "
     in="fbSourceGraphic" /></filter><filter
   id="mask-powermask-path-effect1166_inverse"
   inkscape:label="filtermask-powermask-path-effect1166"
   style="color-interpolation-filters:sRGB"
   height="100"
   width="100"
   x="-50"
   y="-50"><feColorMatrix
     id="mask-powermask-path-effect1166_primitive1"
     values="1"
     type="saturate"
     result="fbSourceGraphic" /><feColorMatrix
     id="mask-powermask-path-effect1166_primitive2"
     values="-1 0 0 0 1 0 -1 0 0 1 0 0 -1 0 1 0 0 0 1 0 "
     in="fbSourceGraphic" /></filter><filter
   id="mask-powermask-path-effect1208_inverse"
   inkscape:label="filtermask-powermask-path-effect1208"
   style="color-interpolation-filters:sRGB"
   height="100"
   width="100"
   x="-50"
   y="-50"><feColorMatrix
     id="mask-powermask-path-effect1208_primitive1"
     values="1"
     type="saturate"
     result="fbSourceGraphic" /><feColorMatrix
     id="mask-powermask-path-effect1208_primitive2"
     values="-1 0 0 0 1 0 -1 0 0 1 0 0 -1 0 1 0 0 0 1 0 "
     in="fbSourceGraphic" /></filter><filter
   id="mask-powermask-path-effect1232_inverse"
   inkscape:label="filtermask-powermask-path-effect1232"
   style="color-interpolation-filters:sRGB"
   height="100"
   width="100"
   x="-50"
   y="-50"><feColorMatrix
     id="mask-powermask-path-effect1232_primitive1"
     values="1"
     type="saturate"
     result="fbSourceGraphic" /><feColorMatrix
     id="mask-powermask-path-effect1232_primitive2"
     values="-1 0 0 0 1 0 -1 0 0 1 0 0 -1 0 1 0 0 0 1 0 "
     in="fbSourceGraphic" /></filter><filter
   id="mask-powermask-path-effect1301_inverse"
   inkscape:label="filtermask-powermask-path-effect1301"
   style="color-interpolation-filters:sRGB"
   height="100"
   width="100"
   x="-50"
   y="-50"><feColorMatrix
     id="mask-powermask-path-effect1301_primitive1"
     values="1"
     type="saturate"
     result="fbSourceGraphic" /><feColorMatrix
     id="mask-powermask-path-effect1301_primitive2"
     values="-1 0 0 0 1 0 -1 0 0 1 0 0 -1 0 1 0 0 0 1 0 "
     in="fbSourceGraphic" /></filter><filter
   id="mask-powermask-path-effect1393_inverse"
   inkscape:label="filtermask-powermask-path-effect1393"
   style="color-interpolation-filters:sRGB"
   height="100"
   width="100"
   x="-50"
   y="-50"><feColorMatrix
     id="mask-powermask-path-effect1393_primitive1"
     values="1"
     type="saturate"
     result="fbSourceGraphic" /><feColorMatrix
     id="mask-powermask-path-effect1393_primitive2"
     values="-1 0 0 0 1 0 -1 0 0 1 0 0 -1 0 1 0 0 0 1 0 "
     in="fbSourceGraphic" /></filter><mask
   maskUnits="userSpaceOnUse"
   id="mask-powermask-path-effect1435"><path
     id="mask-powermask-path-effect1435_box"
     style="fill:#ffffff;fill-opacity:1"
     d="M -1,-1 H 397.875 V 133.29167 H -1 Z" /><g
     id="g1433"
     transform="matrix(1.1730099,0,0,1.1730099,1.72195e-6,35.164884)"
     style="fill:#000000;fill-opacity:1;stroke-width:0.225559"><path
       d="M 99.525,31.555 H 94.45 C 93.948,31.553 93.541,31.146 93.539,30.644 V 2.02 c 0,-0.501 0.41,-0.911 0.911,-0.911 h 5.076 c 0.501,0 0.911,0.41 0.911,0.911 v 28.625 c -0.003,0.502 -0.41,0.908 -0.912,0.91 z m 7.719,0 h -5.076 c -0.502,-0.002 -0.909,-0.409 -0.911,-0.911 V 2.02 c 0,-0.501 0.41,-0.911 0.911,-0.911 h 5.076 c 0.501,0 0.911,0.41 0.911,0.911 v 28.625 c 0,0.5 -0.41,0.91 -0.911,0.91 z M 44.011,26.932 c -1.724,0 -1.806,-1.24 -1.806,-2.443 V 14.077 h 2.702 c 0.524,0 0.952,-0.392 0.952,-0.872 v -2.768 c 0,-0.479 -0.428,-0.872 -0.952,-0.872 H 42.205 V 3.334 c 0,-0.479 -0.428,-0.872 -0.952,-0.872 H 36.26 c -0.524,0 -0.952,0.392 -0.952,0.872 V 9.567 H 30.06 c -0.524,0 -0.952,0.392 -0.952,0.872 v 2.768 c 0,0.479 0.428,0.872 0.952,0.872 h 5.247 V 26.37 c 0,3.352 2.504,5.187 5.501,5.187 h 7.636 v -4.623 c 10e-4,-0.002 -2.709,-0.002 -4.433,-0.002 z"
       style="fill:#000000;fill-opacity:1;stroke-width:0.225559"
       id="path1419" /><path
       d="m 60.658,8.683 c -2.782,0 -5.261,1.116 -7.041,3.157 V 1.98 c 0,-0.479 -0.428,-0.872 -0.952,-0.872 H 47.672 C 47.148,1.108 46.72,1.5 46.72,1.98 v 28.703 c 0,0.479 0.428,0.872 0.952,0.872 h 4.993 c 0.524,0 0.952,-0.392 0.952,-0.872 V 18.127 c 0,-2.283 2.053,-4.05 4.547,-4.05 2.494,0 4.005,1.814 4.005,3.496 v 13.112 c 0,0.479 0.428,0.872 0.952,0.872 h 4.993 c 0.524,0 0.952,-0.392 0.952,-0.872 v -12.24 -2.112 c 0,-3.111 -2.865,-7.65 -8.408,-7.65 z"
       style="fill:#000000;fill-opacity:1;stroke-width:0.225559"
       id="path1421" /><path
       d="m 90.834,22.327 h 3.106 c 0.103,-0.632 0.158,-1.281 0.158,-1.945 0,-6.742 -5.488,-12.207 -12.563,-12.207 -7.074,0 -12.563,5.465 -12.563,12.207 0,6.742 5.488,11.981 12.563,11.981 5.4,0 9.873,-3.055 11.689,-7.499 h -6.622 c -1.055,1.418 -2.85,2.312 -5.283,2.312 -2.583,0 -4.768,-2.039 -5.498,-4.849 z m -9.515,-8.964 c 2.352,0 4.373,1.692 5.267,4.116 H 76.052 c 0.894,-2.424 2.915,-4.116 5.267,-4.116 z m 39.597,-5.188 c -7.404,0 -13.148,5.465 -13.148,12.207 0,6.742 5.744,11.981 13.148,11.981 7.404,0 13.148,-5.24 13.148,-11.981 0,-6.741 -5.744,-12.207 -13.148,-12.207 z m 0,19.23 c -4.649,0 -5.916,-3.091 -5.916,-7.069 0,-3.978 1.637,-7.202 5.916,-7.202 4.279,0 5.916,3.224 5.916,7.202 0,3.978 -1.266,7.069 -5.916,7.069 z M 17.027,0 C 7.623,0 0,7.333 0,16.379 c 0,9.046 7.623,16.379 17.027,16.379 9.404,0 17.027,-7.333 17.027,-16.379 C 34.054,7.333 26.431,0 17.027,0 Z m 0.321,27.189 c -6.201,0 -9.025,-4.84 -9.025,-10.81 0,-5.97 3.131,-10.81 9.025,-10.81 5.894,0 9.025,4.84 9.025,10.81 0,5.97 -2.824,10.81 -9.025,10.81 z"
       style="fill:#000000;fill-opacity:1;stroke-width:0.225559"
       id="path1423" /><path
       d="m 289.989,7.142 h -5.677 c -0.336,-0.001 -0.609,-0.274 -0.61,-0.61 V 3.467 c 0,-0.335 0.274,-0.61 0.61,-0.61 h 5.677 c 0.335,0 0.61,0.274 0.61,0.61 v 3.065 c 0,0.335 -0.275,0.61 -0.61,0.61 z m -30.276,0 h -5.694 C 253.687,7.141 253.418,6.872 253.417,6.54 V 3.458 c 0,-0.331 0.271,-0.602 0.602,-0.602 h 5.694 c 0.331,0 0.602,0.271 0.602,0.602 V 6.54 c -10e-4,0.332 -0.27,0.601 -0.602,0.602 z m -28.798,0 h -5.751 C 224.848,7.141 224.592,6.885 224.591,6.569 V 3.43 c 0,-0.315 0.258,-0.573 0.573,-0.573 h 5.751 c 0.315,0 0.573,0.258 0.573,0.573 v 3.139 c -0.001,0.316 -0.257,0.572 -0.573,0.573 z M 209.429,31.95 h -5.076 c -0.502,-0.002 -0.909,-0.409 -0.911,-0.911 V 2.414 c 0,-0.501 0.41,-0.911 0.911,-0.911 h 5.076 c 0.501,0 0.911,0.41 0.911,0.911 v 28.625 c 0,0.501 -0.41,0.911 -0.911,0.911 z m 80.259,0 h -5.076 c -0.502,-0.002 -0.909,-0.409 -0.911,-0.911 V 9.857 c 0,-0.501 0.41,-0.911 0.911,-0.911 h 5.076 c 0.501,0 0.911,0.41 0.911,0.911 v 21.182 c 0,0.501 -0.41,0.911 -0.911,0.911 z m -30.284,0 h -5.076 c -0.502,-0.002 -0.909,-0.409 -0.911,-0.911 V 9.857 c 0,-0.501 0.41,-0.911 0.911,-0.911 h 5.076 c 0.501,0 0.911,0.41 0.911,0.911 v 21.182 c 0,0.501 -0.41,0.911 -0.911,0.911 z m -28.826,0 h -5.076 C 225,31.948 224.593,31.541 224.591,31.039 V 9.857 c 0,-0.501 0.41,-0.911 0.911,-0.911 h 5.076 c 0.501,0 0.911,0.41 0.911,0.911 v 21.182 c 0,0.501 -0.41,0.911 -0.911,0.911 z"
       style="fill:#000000;fill-opacity:1;stroke-width:0.225559"
       id="path1425" /><path
       d="m 221.794,27.327 c -1.724,0 -1.806,-1.24 -1.806,-2.443 V 14.472 h 3.018 c 0.35,0 0.635,-0.262 0.635,-0.582 v -3.347 c 0,-0.32 -0.286,-0.582 -0.635,-0.582 h -3.018 V 3.432 c 0,-0.316 -0.283,-0.575 -0.628,-0.575 h -5.642 c -0.345,0 -0.628,0.259 -0.628,0.575 v 6.529 h -5.564 c -0.349,0 -0.635,0.262 -0.635,0.582 v 3.347 c 0,0.32 0.286,0.582 0.635,0.582 h 5.564 v 12.291 c 0,3.352 2.504,5.187 5.501,5.187 h 7.636 V 27.327 Z M 329.931,9.078 c -2.782,0 -5.261,1.116 -7.041,3.157 V 9.366 c 0,-0.479 -0.428,-0.872 -0.952,-0.872 h -4.993 c -0.524,0 -0.952,0.392 -0.952,0.872 v 21.712 c 0,0.479 0.428,0.872 0.952,0.872 h 4.993 c 0.524,0 0.952,-0.392 0.952,-0.872 V 18.521 c 0,-2.283 2.053,-4.05 4.547,-4.05 2.494,0 4.005,1.814 4.005,3.496 v 13.112 c 0,0.479 0.428,0.872 0.952,0.872 h 4.993 c 0.524,0 0.952,-0.392 0.952,-0.872 v -12.24 -2.112 c 0,-3.111 -2.865,-7.649 -8.408,-7.649 z M 187.685,31.367 c 2.782,0 5.261,-1.116 7.041,-3.157 v 2.868 c 0,0.479 0.428,0.872 0.952,0.872 h 4.993 c 0.524,0 0.952,-0.392 0.952,-0.872 V 9.366 c 0,-0.479 -0.428,-0.872 -0.952,-0.872 h -4.993 c -0.524,0 -0.952,0.392 -0.952,0.872 v 12.557 c 0,2.283 -2.053,4.05 -4.547,4.05 -2.494,0 -4.005,-1.814 -4.005,-3.496 V 9.366 c 0,-0.479 -0.428,-0.872 -0.952,-0.872 h -4.993 c -0.524,0 -0.952,0.392 -0.952,0.872 v 14.352 c 0,3.111 2.866,7.649 8.408,7.649 z"
       style="fill:#000000;fill-opacity:1;stroke-width:0.225559"
       id="path1427" /><path
       d="m 303.377,8.57 c -7.404,0 -13.148,5.465 -13.148,12.207 0,6.742 5.744,11.981 13.148,11.981 7.404,0 13.148,-5.24 13.148,-11.981 0,-6.741 -5.744,-12.207 -13.148,-12.207 z m 0,19.23 c -4.649,0 -5.917,-3.091 -5.917,-7.069 0,-3.978 1.637,-7.202 5.917,-7.202 4.28,0 5.917,3.224 5.917,7.202 0,3.978 -1.267,7.069 -5.917,7.069 z M 253.372,8.946 h -4.993 c -0.524,0 -1.067,0.392 -1.207,0.872 l -4.476,15.294 -5.352,-15.294 c -0.168,-0.479 -0.733,-0.872 -1.257,-0.872 h -4.993 c -0.524,0 -0.815,0.392 -0.647,0.872 l 5.395,15.42 c 0.047,0.177 0.098,0.359 0.153,0.548 1.909,6.524 6.7,6.164 6.7,6.164 0,0 4.791,0.36 6.7,-6.164 l 4.673,-15.968 c 0.141,-0.48 -0.172,-0.872 -0.696,-0.872 z m 18.22,4.736 h 14.985 V 8.946 h -16.463 c -4.019,0 -7.308,3.011 -7.308,6.691 0,3.68 3.288,6.691 7.308,6.691 h 1.684 c 1.446,0 2.668,1.119 2.668,2.443 0,1.324 -1.222,2.443 -2.669,2.443 h -12.85 v 4.736 h 14.821 c 4.313,0 7.841,-3.231 7.841,-7.179 0,-3.949 -3.529,-7.179 -7.841,-7.179 h -2.176 c -1.157,0 -2.135,-0.895 -2.135,-1.955 0,-1.06 0.978,-1.955 2.135,-1.955 z M 177.036,4.341 177.034,4.329 C 176.955,3.633 176.627,2.956 176.048,2.425 175.469,1.894 174.729,1.594 173.969,1.522 L 173.956,1.52 C 173.84,1.509 173.724,1.504 173.608,1.504 h -0.002 l -0.057,0.003 c -0.093,0.001 -0.187,0.006 -0.28,0.013 -0.048,0.004 -0.095,0.013 -0.143,0.019 -0.065,0.008 -0.131,0.016 -0.196,0.028 -0.038,0.007 -0.076,0.017 -0.113,0.025 -0.075,0.016 -0.15,0.032 -0.223,0.053 -0.019,0.005 -0.037,0.012 -0.055,0.018 -0.5,0.149 -0.971,0.401 -1.367,0.763 l -2.415,2.211 -3.043,2.786 -3.439,3.149 -3.439,-3.149 -3.043,-2.786 -2.415,-2.211 C 152.986,2.071 152.519,1.81 152.011,1.663 L 151.956,1.645 C 151.882,1.624 151.807,1.608 151.733,1.592 151.695,1.584 151.658,1.574 151.62,1.567 151.555,1.555 151.49,1.548 151.424,1.539 151.376,1.533 151.329,1.525 151.281,1.52 151.188,1.512 151.094,1.508 151.001,1.507 l -0.057,-0.003 h -0.002 c -0.116,0 -0.232,0.006 -0.348,0.016 l -0.013,0.002 c -0.761,0.072 -1.5,0.372 -2.079,0.903 -0.549,0.494 -0.9,1.171 -0.986,1.904 l -0.002,0.012 c -0.012,0.106 -0.018,0.212 -0.018,0.319 v 26.42 c 0,0.479 0.428,0.872 0.952,0.872 h 4.993 c 0.524,0 0.952,-0.392 0.952,-0.872 V 12.297 l 6.837,6.26 c 0.597,0.528 1.493,0.528 2.09,0 l 6.837,-6.26 V 31.08 c 0,0.479 0.428,0.872 0.952,0.872 h 4.993 c 0.524,0 0.952,-0.392 0.952,-0.872 V 4.661 4.659 c 0,-0.106 -0.006,-0.213 -0.018,-0.318 z"
       style="fill:#000000;fill-opacity:1;stroke-width:0.225559"
       id="path1429" /><path
       stroke-width="0.0563898"
       stroke-miterlimit="10"
       d="m 55.92,38.823 h 226.5 v 14 H 55.92 Z m 26.869,4.715 h -3.19 V 41.35 h -1.002 v 2.186 h -4.62 v 0.891 h 3.991 c -0.787,1.484 -2.143,2.959 -4.069,4.425 l 0.729,0.763 c 1.789,-1.35 3.112,-2.688 3.969,-4.013 v 4.687 c 0,0.037 1.002,0.371 1.002,0.034 v -5.895 h 3.19 z m 8.976,0.249 -4.414,0.674 v -2.633 h -1.058 v 2.805 l -2.655,0.401 0.145,0.991 2.51,-0.39 v 3.34 c -0.002,0.285 0.11,0.559 0.312,0.76 0.208,0.218 0.46,0.326 0.757,0.326 h 4.392 V 49.07 h -4.091 c -0.208,0 -0.312,-0.095 -0.312,-0.284 v -3.295 l 3.251,-0.49 c -0.463,0.707 -0.999,1.363 -1.598,1.959 l 0.773,0.663 c 0.713,-0.698 1.437,-1.655 2.171,-2.872 z m 11.474,-1.035 h -6.391 v 6.591 h 1.036 v -0.501 h 4.319 v 0.501 h 1.036 z m -5.355,5.133 v -4.164 h 4.319 v 4.164 z m 17.202,-3.307 v -0.936 h -5.444 c 0.297,-0.79 0.501,-1.417 0.612,-1.881 l -0.946,-0.273 c -0.617,2.057 -1.483,3.702 -2.6,4.938 l 0.835,0.612 c 0.654,-0.748 1.213,-1.575 1.665,-2.46 h 2.733 c -0.178,2.145 -1.193,3.954 -3.045,5.427 l 0.824,0.657 c 1.958,-1.588 3.042,-3.616 3.25,-6.084 z m -1.208,-2.883 -0.707,0.351 c 0.373,0.427 0.703,0.889 0.985,1.38 l 0.718,-0.328 c -0.309,-0.553 -0.641,-1.021 -0.996,-1.403 z m 1.185,-0.479 -0.685,0.373 c 0.46,0.538 0.807,1.041 1.041,1.509 l 0.685,-0.368 c -0.312,-0.612 -0.659,-1.117 -1.041,-1.514 z m 11.163,4.203 h -8.377 v 1.007 h 8.377 z m 8.353,0.322 -0.869,0.612 c 0.554,0.525 1.066,1.093 1.531,1.698 -1.547,0.186 -2.976,0.304 -4.286,0.356 0.931,-2.023 1.707,-4.115 2.321,-6.256 l -1.024,-0.278 c -0.683,2.519 -1.514,4.716 -2.494,6.59 h -1.475 l 0.268,1.075 c 3.001,-0.093 5.467,-0.281 7.397,-0.563 0.22,0.309 0.425,0.628 0.612,0.958 l 0.813,-0.612 c -0.605,-1.106 -1.537,-2.299 -2.794,-3.58 z m 14.657,-3.056 h -3.98 c 0.034,-0.573 0.062,-1.146 0.083,-1.72 l -1.019,-0.011 c -0.009,0.577 -0.031,1.155 -0.067,1.731 h -4.069 v 8.183 h 1.046 v -7.236 h 2.895 c -0.23,1.818 -1.08,3.384 -2.549,4.698 l 0.74,0.718 c 1.184,-1.172 1.993,-2.386 2.427,-3.64 0.861,1.035 1.67,2.264 2.427,3.685 l 0.813,-0.651 c -0.87,-1.473 -1.859,-2.873 -2.956,-4.186 0.051,-0.206 0.09,-0.414 0.117,-0.624 h 3.078 v 5.917 c 0,0.234 -0.126,0.351 -0.378,0.351 -0.939,0 -1.516,-0.007 -1.731,-0.022 l 0.351,1.002 c 0.463,0.028 0.928,0.039 1.392,0.033 0.92,0 1.38,-0.403 1.38,-1.208 z m 10.657,5.777 c -0.122,0.913 -0.271,1.37 -0.445,1.37 -0.086,0 -0.22,-0.097 -0.404,-0.292 -0.184,-0.195 -0.339,-0.439 -0.465,-0.732 0.56,-0.958 1.048,-2.117 1.464,-3.479 l -0.902,-0.262 c -0.357,1.147 -0.687,2.002 -0.991,2.566 -0.231,-0.832 -0.364,-1.846 -0.401,-3.045 h 2.861 v -0.835 h -2.883 c -0.011,-0.215 -0.011,-0.431 0,-0.646 l -0.979,-0.022 c -0.015,0.222 -0.015,0.446 0,0.668 h -5.372 v 3.251 c 0,1.373 -0.258,2.445 -0.774,3.217 l 0.763,0.718 c 0.646,-0.983 0.969,-2.241 0.969,-3.774 v -2.577 h 4.447 c 0.089,1.718 0.325,3.121 0.707,4.208 -0.338,0.493 -0.816,1.067 -1.436,1.72 l 0.818,0.479 c 0.46,-0.471 0.829,-0.892 1.107,-1.263 0.546,0.798 1.056,1.197 1.531,1.197 0.39,0 0.691,-0.243 0.902,-0.729 0.211,-0.486 0.324,-0.909 0.339,-1.269 z M 155.411,41.6 h -1.175 v -0.673 h -1.013 V 41.6 h -2.544 v 0.891 h 2.544 v 0.707 h 1.013 v -0.707 h 1.175 z m 1.141,3.502 H 152.8 v 4.948 h 3.579 v -0.785 h -1.002 v -0.673 h 0.98 v -2.099 h -0.98 v -0.629 h 1.175 z m -2.827,1.391 v -0.629 h 0.751 v 0.629 z m -0.001,1.403 v -0.718 h 1.72 v 0.718 z m 0.001,1.369 v -0.673 h 0.751 v 0.673 z m 6.884,-7.665 h -2.471 v -0.673 h -1.041 V 41.6 h -1.208 v 0.891 h 1.208 v 0.306 h 1.041 v -0.306 h 2.471 z m -1.663,0.958 -0.535,0.562 c 0.731,0.324 1.134,0.509 1.208,0.557 l 0.523,-0.59 c -0.401,-0.208 -0.8,-0.385 -1.196,-0.529 z m 14.445,4.48 c 0.869,-0.448 1.671,-1.016 2.382,-1.687 l -0.718,-0.64 c -0.716,0.705 -1.466,1.252 -2.249,1.642 -0.208,-0.56 -0.549,-1.1 -1.024,-1.62 0.279,-0.163 0.51,-0.337 0.696,-0.523 h 2.338 v -0.885 h -6.44 v 0.885 h 2.767 c -1.322,0.735 -2.781,1.189 -4.286,1.336 l 0.457,0.868 c 1.384,-0.245 2.6,-0.641 3.646,-1.186 0.238,0.256 0.368,0.399 0.39,0.429 -1.47,1.058 -3.025,1.724 -4.665,1.998 l 0.434,0.83 c 1.752,-0.364 3.307,-1.071 4.665,-2.121 0.101,0.189 0.181,0.389 0.239,0.595 -1.532,1.388 -3.411,2.336 -5.438,2.745 l 0.445,0.857 c 2.007,-0.512 3.725,-1.371 5.154,-2.577 0.007,0.16 0.011,0.332 0.011,0.518 0,0.583 -0.024,0.931 -0.072,1.044 -0.045,0.11 -0.115,0.208 -0.203,0.287 -0.087,0.078 -0.27,0.117 -0.548,0.117 -0.223,0 -0.596,-0.009 -1.119,-0.028 l 0.334,0.969 c 0.304,0.012 0.551,0.017 0.74,0.017 0.723,0 1.212,-0.16 1.464,-0.481 0.252,-0.321 0.378,-0.918 0.378,-1.79 0,-0.201 -0.006,-0.379 -0.017,-0.535 0.635,0.817 1.611,1.595 2.928,2.333 l 0.579,-0.83 c -1.474,-0.753 -2.563,-1.609 -3.268,-2.567 z m 2.895,-5.265 h -4.13 c -0.159,-0.308 -0.33,-0.605 -0.512,-0.891 l -1.08,0.217 c 0.166,0.21 0.311,0.436 0.434,0.674 h -4.108 v 2.065 h 1.007 v -1.164 h 7.398 v 1.164 h 0.991 z m 11.448,0 h -4.036 c -0.271,-0.487 -0.442,-0.776 -0.512,-0.869 l -1.085,0.229 c 0.169,0.196 0.315,0.41 0.434,0.64 h -3.863 v 4.787 c 0,1.495 -0.282,2.761 -0.846,3.796 l 0.824,0.629 c 0.682,-1.173 1.024,-2.613 1.024,-4.32 v -3.946 h 8.06 z m 0.14,8.003 h -3.433 c -1.013,0 -1.796,-0.191 -2.349,-0.573 0.32,-0.601 0.544,-1.375 0.674,-2.321 v -0.935 h -1.347 c 0.453,-0.472 0.858,-0.989 1.208,-1.542 V 43.47 h -2.505 v 0.935 h 1.358 c -0.508,0.694 -0.961,1.208 -1.358,1.542 v 0.935 h 1.642 c -0.037,0.598 -0.164,1.109 -0.379,1.536 -0.13,-0.197 -0.293,-0.584 -0.49,-1.163 l -0.913,0.306 c 0.3,0.798 0.593,1.36 0.879,1.687 -0.349,0.36 -0.794,0.668 -1.336,0.924 l 0.651,0.791 c 0.589,-0.334 1.049,-0.674 1.38,-1.019 0.782,0.542 1.77,0.813 2.961,0.813 h 3.056 l 0.301,-0.979 z m -0.267,-1.713 h -1.832 v -1.447 h 1.436 v -0.918 h -1.436 v -1.292 c 0.534,-0.089 1.134,-0.23 1.798,-0.423 l -0.545,-0.84 c -1.143,0.346 -2.495,0.561 -4.058,0.646 l 0.384,0.913 c 0.375,-0.026 0.846,-0.067 1.414,-0.123 v 1.119 h -1.481 v 0.918 h 1.481 v 1.447 h -1.854 v 0.935 h 4.693 z m 10.661,1.692 v -8.561 h -8.438 v 5.049 c -0.005,0.754 -0.093,1.505 -0.262,2.24 -0.174,0.781 -0.421,1.409 -0.74,1.884 l 0.902,0.584 c 0.549,-0.868 0.887,-2.035 1.013,-3.501 h 2.761 v 3.189 h 0.968 V 47.45 h 2.806 v 2.054 c -0.002,0.093 -0.04,0.182 -0.106,0.248 -0.059,0.071 -0.147,0.113 -0.239,0.114 l -1.274,0.011 0.306,1.002 c 0.275,0.019 0.54,0.028 0.796,0.028 0.56,0 0.951,-0.115 1.174,-0.345 0.223,-0.23 0.334,-0.499 0.334,-0.807 z m -7.425,-5.917 v -1.653 h 2.661 v 1.653 z m 0,2.655 v -1.709 h 2.661 v 1.709 z m 3.629,-2.655 v -1.653 h 2.806 v 1.653 z m 0,2.655 v -1.709 h 2.806 v 1.709 z m 14.512,-1.263 v -0.936 h -8.333 v 0.935 h 3.807 c 0.008,0.987 -0.028,1.701 -0.108,2.14 -0.08,0.44 -0.294,0.861 -0.643,1.261 -0.349,0.401 -0.911,0.78 -1.687,1.136 l 0.685,0.774 c 0.839,-0.382 1.462,-0.835 1.868,-1.358 0.406,-0.523 0.664,-1.084 0.774,-1.684 0.109,-0.599 0.164,-1.355 0.164,-2.268 z m -1.318,-3.185 h -5.667 v 0.958 h 5.667 z m 11.521,2.668 c -0.965,1.317 -1.852,2.234 -2.661,2.752 -0.809,0.517 -1.739,0.889 -2.789,1.116 v -6.635 h -1.035 v 7.843 c 1.607,-0.201 2.951,-0.615 4.033,-1.242 1.081,-0.627 2.146,-1.653 3.192,-3.078 z m 10.897,5.042 v -0.983 h -4.876 c -0.059,0 -0.125,-0.032 -0.197,-0.097 -0.073,-0.065 -0.109,-0.127 -0.109,-0.187 v -2.667 c 1.732,-0.177 3.437,-0.552 5.083,-1.119 l -0.523,-0.863 c -1.377,0.478 -2.896,0.82 -4.559,1.024 v -2.917 h -1.074 v 6.702 c -0.007,0.303 0.122,0.594 0.351,0.793 0.234,0.21 0.509,0.314 0.824,0.314 z m -0.633,-7.821 -0.64,0.429 c 0.389,0.463 0.736,0.961 1.036,1.486 l 0.662,-0.412 c -0.271,-0.534 -0.623,-1.035 -1.058,-1.503 z m 0.98,-0.662 -0.64,0.412 c 0.409,0.465 0.762,0.977 1.052,1.525 l 0.657,-0.445 c -0.337,-0.601 -0.694,-1.099 -1.069,-1.492 z m 11.743,2.37 h -5.445 c 0.297,-0.79 0.502,-1.417 0.613,-1.881 l -0.947,-0.273 c -0.615,2.057 -1.483,3.702 -2.599,4.938 l 0.835,0.612 c 0.68,-0.786 1.235,-1.606 1.665,-2.46 h 2.734 c -0.18,2.145 -1.193,3.954 -3.045,5.427 l 0.822,0.657 c 1.961,-1.588 3.043,-3.616 3.252,-6.084 h 2.115 z m -1.209,-1.947 -0.707,0.351 c 0.373,0.427 0.703,0.889 0.986,1.38 l 0.717,-0.328 c -0.306,-0.553 -0.638,-1.021 -0.996,-1.403 z m 1.186,-0.479 -0.684,0.373 c 0.459,0.538 0.807,1.041 1.041,1.509 l 0.684,-0.368 c -0.311,-0.612 -0.658,-1.117 -1.041,-1.514 z m 11.204,4.203 h -8.377 v 1.007 h 8.377 z m 8.29,0.322 -0.868,0.612 c 0.553,0.526 1.065,1.094 1.531,1.698 -1.423,0.175 -2.853,0.294 -4.286,0.356 0.931,-2.024 1.707,-4.115 2.321,-6.256 l -1.024,-0.278 c -0.682,2.519 -1.515,4.716 -2.494,6.59 h -1.475 l 0.267,1.075 c 3.002,-0.093 5.468,-0.281 7.398,-0.563 0.155,0.208 0.359,0.527 0.612,0.958 l 0.813,-0.612 c -0.605,-1.106 -1.536,-2.299 -2.795,-3.58 z"
       style="fill:#000000;fill-opacity:1"
       id="path1431" /></g></mask><filter
   id="mask-powermask-path-effect1435_inverse"
   inkscape:label="filtermask-powermask-path-effect1435"
   style="color-interpolation-filters:sRGB"
   height="100"
   width="100"
   x="-50"
   y="-50"><feColorMatrix
     id="mask-powermask-path-effect1435_primitive1"
     values="1"
     type="saturate"
     result="fbSourceGraphic" /><feColorMatrix
     id="mask-powermask-path-effect1435_primitive2"
     values="-1 0 0 0 1 0 -1 0 0 1 0 0 -1 0 1 0 0 0 1 0 "
     in="fbSourceGraphic" /></filter></defs><g
     inkscape:label="Layer 1"
     inkscape:groupmode="layer"
     id="layer1"><rect
       style="fill:#ffffff;stroke-width:0.8001;stroke-linecap:square;paint-order:fill markers stroke"
       id="rect231"
       width="396.875"
       height="132.29167"
       x="0"
       y="0"
       mask="url(#mask-powermask-path-effect1435)"
       inkscape:path-effect="#path-effect1435"
       d="M 0,0 H 396.875 V 132.29167 H 0 Z" /></g><style
     type="text/css"
     id="style5697">
	.st0{fill:#E62229;}
	.st1{fill:#019B43;}
	.st2{fill:#FFFFFF;}
</style></svg>
