<?xml version="1.0" encoding="UTF-8" standalone="no"?>
<svg
   shape-rendering="geometricPrecision"
   text-rendering="geometricPrecision"
   image-rendering="optimizeQuality"
   fill-rule="evenodd"
   clip-rule="evenodd"
   viewBox="0 0 550 309.46501"
   version="1.1"
   id="svg8"
   sodipodi:docname="b50.svg"
   width="550"
   height="309.465"
   inkscape:version="1.2.2 (732a01da63, 2022-12-09)"
   xmlns:inkscape="http://www.inkscape.org/namespaces/inkscape"
   xmlns:sodipodi="http://sodipodi.sourceforge.net/DTD/sodipodi-0.dtd"
   xmlns="http://www.w3.org/2000/svg"
   xmlns:svg="http://www.w3.org/2000/svg">
  <defs
     id="defs12" />
  <sodipodi:namedview
     id="namedview10"
     pagecolor="#ffffff"
     bordercolor="#111111"
     borderopacity="1"
     inkscape:showpageshadow="0"
     inkscape:pageopacity="0"
     inkscape:pagecheckerboard="1"
     inkscape:deskcolor="#d1d1d1"
     showgrid="false"
     inkscape:zoom="2.3535156"
     inkscape:cx="226.89461"
     inkscape:cy="129.59336"
     inkscape:window-width="1920"
     inkscape:window-height="1009"
     inkscape:window-x="-8"
     inkscape:window-y="-8"
     inkscape:window-maximized="1"
     inkscape:current-layer="g6" />
  <g
     fill-rule="nonzero"
     id="g6">
    <path
       d="m 472.4889,64.051498 v 29.616 h 27.836 c 3.359,0 6.379,1.378 8.549,3.551 a 12.13,12.13 0 0 1 3.551,8.551002 v 97.757 c 0,3.323 -1.389,6.37 -3.561,8.541 -2.169,2.168 -5.217,3.559 -8.539,3.559 h -27.836 v 29.616 c 0,21.195 -17.357,38.531 -38.531,38.531 H 38.955896 c -21.206,0 -38.53099973,-17.323 -38.53099973,-38.531 V 64.051498 c 0,-21.183 17.36699973,-38.531 38.53099973,-38.531 H 433.9579 c 21.216,0 38.531,17.316 38.531,38.531 z M 447.0279,242.4745 V 66.817498 c 0,-8.686 -7.15,-15.835 -15.835,-15.835 H 41.722896 c -8.711,0 -15.835,7.13 -15.835,15.835 V 242.4745 c 0,8.676 7.161,15.837 15.835,15.837 H 431.1929 c 8.697,0 15.835,-7.123 15.835,-15.837 z"
       id="path2"
       style="fill:#ffffff;fill-opacity:1" />
    <path
       fill="#ff932f"
       d="m 154.0329,74.061498 h 70.068 V 235.4035 h -70.068 z m -87.788004,0 H 124.7889 V 235.4035 H 66.244896 c -6.254,0 -11.517,-5.191 -11.517,-11.525 V 85.586498 c 0,-6.336 5.182,-11.525 11.517,-11.525 z"
       id="path4"
       style="fill:#ffffff;fill-opacity:1" />
  </g>
</svg>
