<?xml version="1.0" encoding="UTF-8" standalone="no"?>
<svg
   shape-rendering="geometricPrecision"
   text-rendering="geometricPrecision"
   image-rendering="optimizeQuality"
   fill-rule="evenodd"
   clip-rule="evenodd"
   viewBox="0 0 550 309.46501"
   version="1.1"
   id="svg451"
   sodipodi:docname="b75.svg"
   width="550"
   height="309.465"
   inkscape:version="1.2.2 (732a01da63, 2022-12-09)"
   xmlns:inkscape="http://www.inkscape.org/namespaces/inkscape"
   xmlns:sodipodi="http://sodipodi.sourceforge.net/DTD/sodipodi-0.dtd"
   xmlns="http://www.w3.org/2000/svg"
   xmlns:svg="http://www.w3.org/2000/svg">
  <defs
     id="defs455" />
  <sodipodi:namedview
     id="namedview453"
     pagecolor="#ffffff"
     bordercolor="#111111"
     borderopacity="1"
     inkscape:showpageshadow="0"
     inkscape:pageopacity="0"
     inkscape:pagecheckerboard="1"
     inkscape:deskcolor="#d1d1d1"
     showgrid="false"
     inkscape:zoom="2.3535156"
     inkscape:cx="157.63652"
     inkscape:cy="129.59336"
     inkscape:window-width="1920"
     inkscape:window-height="1009"
     inkscape:window-x="-8"
     inkscape:window-y="-8"
     inkscape:window-maximized="1"
     inkscape:current-layer="svg451" />
  <g
     fill-rule="nonzero"
     id="g449"
     style="fill:#ffffff;fill-opacity:1"
     transform="translate(0.42489627,25.605998)">
    <path
       d="M 472.064,38.531 V 68.147 H 499.9 c 3.359,0 6.379,1.378 8.549,3.551 A 12.13,12.13 0 0 1 512,80.249 v 97.757 c 0,3.323 -1.389,6.37 -3.561,8.541 -2.169,2.168 -5.217,3.559 -8.539,3.559 h -27.836 v 29.616 c 0,21.195 -17.357,38.531 -38.531,38.531 H 38.531 C 17.325,258.253 0,240.93 0,219.722 V 38.531 C 0,17.348 17.367,0 38.531,0 h 395.002 c 21.216,0 38.531,17.316 38.531,38.531 z M 446.603,216.954 V 41.297 c 0,-8.686 -7.15,-15.835 -15.835,-15.835 H 41.298 c -8.711,0 -15.835,7.13 -15.835,15.835 v 175.657 c 0,8.676 7.161,15.837 15.835,15.837 h 389.47 c 8.697,0 15.835,-7.123 15.835,-15.837 z"
       id="path445"
       style="fill:#ffffff;fill-opacity:1" />
    <path
       fill="#f8cc46"
       d="m 153.608,48.541 h 70.068 v 161.342 h -70.068 z m 97.37,0 h 70.068 v 161.342 h -70.068 z m -185.158,0 h 58.544 V 209.883 H 65.82 c -6.254,0 -11.517,-5.191 -11.517,-11.525 V 60.066 c 0,-6.336 5.182,-11.525 11.517,-11.525 z"
       id="path447"
       style="fill:#ffffff;fill-opacity:1" />
  </g>
</svg>
