<?xml version="1.0" encoding="UTF-8" standalone="no"?>
<svg
   version="1.1"
   id="Layer_1"
   x="0px"
   y="0px"
   viewBox="0 0 128.88001 101.67"
   xml:space="preserve"
   sodipodi:docname="mobile-signal-icon.svg"
   width="128.88"
   height="101.67"
   inkscape:version="1.2.2 (732a01da63, 2022-12-09)"
   xmlns:inkscape="http://www.inkscape.org/namespaces/inkscape"
   xmlns:sodipodi="http://sodipodi.sourceforge.net/DTD/sodipodi-0.dtd"
   xmlns="http://www.w3.org/2000/svg"
   xmlns:svg="http://www.w3.org/2000/svg"><defs
     id="defs2621" /><sodipodi:namedview
     id="namedview2619"
     pagecolor="#ffffff"
     bordercolor="#111111"
     borderopacity="1"
     inkscape:showpageshadow="0"
     inkscape:pageopacity="0"
     inkscape:pagecheckerboard="1"
     inkscape:deskcolor="#d1d1d1"
     showgrid="false"
     inkscape:zoom="8.1538312"
     inkscape:cx="51.693491"
     inkscape:cy="50.89632"
     inkscape:window-width="1920"
     inkscape:window-height="1009"
     inkscape:window-x="-8"
     inkscape:window-y="-8"
     inkscape:window-maximized="1"
     inkscape:current-layer="Layer_1" /><style
     type="text/css"
     id="style2612">.st0{fill-rule:evenodd;clip-rule:evenodd;}</style><g
     id="g2616"
     style="fill:#ffffff;fill-opacity:1"><path
       class="st0"
       d="m 67.14,55.68 h 21.15 c 1.13,0 2.05,0.92 2.05,2.05 v 41.9 c 0,1.12 -0.92,2.05 -2.05,2.05 H 67.14 c -1.12,0 -2.05,-0.92 -2.05,-2.05 v -41.9 c 0,-1.13 0.92,-2.05 2.05,-2.05 z M 2.05,0 H 23.2 c 1.13,0 2.05,0.93 2.05,2.05 v 97.58 c 0,1.12 -0.93,2.05 -2.05,2.05 H 2.05 C 0.93,101.68 0,100.76 0,99.63 V 2.05 C 0,0.92 0.92,0 2.05,0 Z m 97.63,76.33 h 21.15 c 1.13,0 2.05,0.93 2.05,2.05 v 21.25 c 0,1.12 -0.92,2.05 -2.05,2.05 H 99.68 c -1.12,0 -2.05,-0.92 -2.05,-2.05 V 78.38 c 0.01,-1.13 0.93,-2.05 2.05,-2.05 z M 34.59,31.5 h 21.15 c 1.13,0 2.05,0.93 2.05,2.05 v 66.07 c 0,1.12 -0.93,2.05 -2.05,2.05 H 34.59 c -1.12,0 -2.05,-0.92 -2.05,-2.05 V 33.55 c 0,-1.13 0.93,-2.05 2.05,-2.05 z"
       id="path2614"
       style="fill:#ffffff;fill-opacity:1" /></g></svg>
