<?xml version="1.0" encoding="UTF-8" standalone="no"?>
<svg
   version="1.1"
   id="Layer_1"
   x="0px"
   y="0px"
   viewBox="0 0 128.88001 94.72"
   xml:space="preserve"
   sodipodi:docname="wifi.svg"
   width="128.88"
   height="94.720001"
   inkscape:version="1.2.2 (732a01da63, 2022-12-09)"
   xmlns:inkscape="http://www.inkscape.org/namespaces/inkscape"
   xmlns:sodipodi="http://sodipodi.sourceforge.net/DTD/sodipodi-0.dtd"
   xmlns="http://www.w3.org/2000/svg"
   xmlns:svg="http://www.w3.org/2000/svg"><defs
     id="defs9" /><sodipodi:namedview
     id="namedview7"
     pagecolor="#ffffff"
     bordercolor="#111111"
     borderopacity="1"
     inkscape:showpageshadow="0"
     inkscape:pageopacity="0"
     inkscape:pagecheckerboard="1"
     inkscape:deskcolor="#d1d1d1"
     showgrid="false"
     inkscape:zoom="8.7521114"
     inkscape:cx="74.724826"
     inkscape:cy="47.302872"
     inkscape:window-width="1920"
     inkscape:window-height="1009"
     inkscape:window-x="-8"
     inkscape:window-y="-8"
     inkscape:window-maximized="1"
     inkscape:current-layer="Layer_1" /><g
     id="g4"
     style="fill:#ffffff;fill-opacity:1"><path
       d="M 8.46,31.23 C 7.38,32.15 6.04,32.55 4.74,32.45 3.43,32.35 2.16,31.75 1.24,30.67 L 1.22,30.64 c -0.91,-1.07 -1.3,-2.41 -1.2,-3.7 0.1,-1.31 0.7,-2.58 1.78,-3.5 L 1.81,23.43 C 10.87,15.66 20.54,9.78 30.54,5.85 c 10.08,-3.96 20.5,-5.93 31,-5.84 10.35,0.09 20.74,2.19 30.9,6.36 9.81,4.03 19.4,10 28.55,17.97 0.11,0.08 0.21,0.17 0.29,0.26 0.96,0.92 1.5,2.13 1.58,3.37 0.08,1.24 -0.29,2.51 -1.12,3.55 -0.08,0.12 -0.18,0.23 -0.29,0.33 -0.92,0.96 -2.13,1.5 -3.37,1.58 -1.3,0.09 -2.65,-0.33 -3.71,-1.26 C 106.1,24.94 97.47,19.55 88.69,15.92 79.7,12.2 70.55,10.34 61.46,10.26 52.26,10.18 43.08,11.94 34.15,15.46 25.25,18.97 16.6,24.25 8.46,31.23 Z m 52.98,41.04 c 3.1,0 5.9,1.26 7.93,3.29 2.03,2.03 3.29,4.84 3.29,7.93 0,3.1 -1.26,5.9 -3.29,7.93 -2.03,2.03 -4.84,3.29 -7.93,3.29 -3.1,0 -5.9,-1.26 -7.94,-3.29 -2.03,-2.03 -3.29,-4.84 -3.29,-7.93 0,-3.09 1.26,-5.9 3.29,-7.93 v 0 c 2.04,-2.03 4.84,-3.29 7.94,-3.29 z m -19.37,-6.1 c -1.1,0.89 -2.46,1.26 -3.76,1.12 -1.24,-0.13 -2.44,-0.71 -3.32,-1.71 -0.1,-0.1 -0.19,-0.21 -0.26,-0.32 -0.8,-1.07 -1.12,-2.35 -0.99,-3.59 0.13,-1.24 0.71,-2.44 1.71,-3.32 0.09,-0.09 0.19,-0.17 0.29,-0.24 4,-3.23 8.18,-5.7 12.47,-7.37 4.35,-1.7 8.82,-2.57 13.33,-2.58 4.45,-0.01 8.89,0.81 13.27,2.5 4.25,1.64 8.44,4.11 12.48,7.41 1.1,0.89 1.73,2.15 1.87,3.45 0.13,1.3 -0.23,2.66 -1.12,3.76 l -0.01,0.01 c -0.89,1.09 -2.14,1.72 -3.45,1.86 -1.3,0.13 -2.66,-0.23 -3.76,-1.12 v 0 c -3.14,-2.57 -6.35,-4.47 -9.56,-5.73 -3.25,-1.28 -6.5,-1.9 -9.72,-1.89 -3.25,0.01 -6.52,0.67 -9.77,1.96 -3.31,1.3 -6.56,3.25 -9.7,5.8 z M 25.81,49.65 c -0.08,0.08 -0.17,0.16 -0.26,0.22 -1.03,0.84 -2.3,1.21 -3.53,1.14 -1.27,-0.08 -2.51,-0.63 -3.44,-1.63 -0.09,-0.08 -0.16,-0.17 -0.23,-0.26 -0.84,-1.03 -1.21,-2.3 -1.14,-3.53 0.08,-1.31 0.66,-2.59 1.72,-3.53 6.81,-6.03 13.85,-10.59 21.01,-13.61 7.18,-3.02 14.49,-4.51 21.85,-4.38 7.27,0.12 14.53,1.8 21.69,5.1 6.97,3.21 13.86,7.96 20.59,14.3 l 0.13,0.12 c 0.95,0.95 1.44,2.2 1.48,3.46 0.04,1.31 -0.42,2.63 -1.39,3.66 l -0.12,0.13 c -0.96,0.95 -2.2,1.45 -3.46,1.49 -1.31,0.04 -2.63,-0.42 -3.66,-1.39 -5.83,-5.5 -11.73,-9.59 -17.62,-12.35 -5.95,-2.78 -11.9,-4.19 -17.8,-4.29 -5.99,-0.1 -12,1.15 -17.96,3.69 -6.03,2.59 -12.01,6.49 -17.86,11.66 z"
       id="path2"
       style="fill:#ffffff;fill-opacity:1" /></g></svg>
